<svg width="40" height="40" viewBox="0 0 40 40" fill="none" xmlns="http://www.w3.org/2000/svg">
<g clip-path="url(#clip0_6_113)">
<path d="M30.4052 16.7454C30.7706 17.4416 30.8932 18.1841 30.8823 18.9523H25.602C25.9227 16.8859 26.7723 15.6257 28.4579 15.6636C29.4383 15.6636 30.0873 16.0247 30.4052 16.7454ZM10.9764 19.558H15.4766L13.1399 10.7307C12.8465 12.7273 11.8175 16.1291 10.9764 19.558ZM40 0V40H0V0H40ZM21.4385 28.5584L15.2522 7.70172H10.9764C10.9764 8.16422 10.9467 8.66859 10.8898 8.87008C10.8317 9.07289 10.8033 9.25953 10.8033 9.43258L5.33875 28.5584H8.57188L10.1109 22.6736H16.169L17.863 28.5584H21.4385ZM34.0832 19.1253C34.0832 17.7406 33.6788 16.356 32.8716 14.9713C32.063 13.5866 30.6215 12.8943 28.5445 12.8943C26.5243 12.8943 24.953 13.688 23.828 15.2742C21.7057 18.0729 21.4844 23.3594 23.7414 26.4381C24.8083 28.0256 26.5824 28.8181 29.0637 28.8181C30.4226 28.8147 31.7183 28.6508 32.8716 28.1257C33.0062 27.9871 33.0409 27.9213 33.0447 27.693V25.3563C33.0408 25.1943 32.952 25.1876 32.7851 25.1834C31.0964 26.0086 28.6419 25.9792 27.4001 25.2632C26.2446 24.597 25.5653 23.2046 25.602 21.5486H30.5349C31.4004 21.5486 32.0927 21.535 32.612 21.5053C33.1313 21.4769 33.5057 21.4336 33.737 21.3755C33.7938 21.3755 33.8371 21.3619 33.8668 21.3322L33.9966 21.2023C33.9966 21.0293 34.0102 20.7561 34.0399 20.3802C34.0683 20.0056 34.0832 19.5878 34.0832 19.1253Z" fill="white"/>
</g>
<defs>
<clipPath id="clip0_6_113">
<rect width="40" height="40" fill="white"/>
</clipPath>
</defs>
</svg>
