<svg width="40" height="40" viewBox="0 0 40 40" fill="none" xmlns="http://www.w3.org/2000/svg">
<g clip-path="url(#clip0_6_121)">
<path d="M20 20C20 11.1138 33.3338 11.1138 33.3338 20C33.3338 28.8863 20 28.8863 20 20ZM6.66626 33.3338C6.66577 32.4582 6.83786 31.5911 7.17269 30.7821C7.50753 29.9731 7.99854 29.238 8.61766 28.6189C9.23678 27.9998 9.97185 27.5088 10.7809 27.174C11.5899 26.8391 12.4569 26.667 13.3325 26.6675H19.9988V33.3338C19.9988 42.22 6.66501 42.22 6.66501 33.3338H6.66626ZM20 3.0353e-05V13.3338H26.6663C35.5525 13.3338 35.5525 3.0353e-05 26.6663 3.0353e-05H20ZM6.66626 6.66628C6.66577 7.54184 6.83786 8.40892 7.17269 9.21793C7.50753 10.0269 7.99854 10.762 8.61766 11.3811C9.23678 12.0002 9.97185 12.4913 10.7809 12.8261C11.5899 13.1609 12.4569 13.333 13.3325 13.3325H19.9988V-0.00121965H13.3325C12.4569 -0.0017126 11.5899 0.170379 10.7809 0.505214C9.97185 0.84005 9.23678 1.33106 8.61766 1.95018C7.99854 2.5693 7.50753 3.30437 7.17269 4.11338C6.83786 4.92239 6.66577 5.78947 6.66626 6.66503V6.66628ZM6.66626 20C6.66577 20.8756 6.83786 21.7427 7.17269 22.5517C7.50753 23.3607 7.99854 24.0958 8.61766 24.7149C9.23678 25.334 9.97185 25.825 10.7809 26.1598C11.5899 26.4947 12.4569 26.668 13.3325 26.6675H19.9988V13.3325H13.3325C12.4569 13.332 11.5899 13.5041 10.7809 13.839C9.97185 14.1738 9.23678 14.6648 8.61766 15.2839C7.99854 15.903 7.50753 16.6381 7.17269 17.4471C6.83786 18.2561 6.66577 19.1232 6.66626 19.9988V20Z" fill="white"/>
</g>
<defs>
<clipPath id="clip0_6_121">
<rect width="40" height="40" fill="white"/>
</clipPath>
</defs>
</svg>
