<svg width="40" height="40" viewBox="0 0 40 40" fill="none" xmlns="http://www.w3.org/2000/svg">
<g clip-path="url(#clip0_6_77)">
<mask id="mask0_6_77" style="mask-type:luminance" maskUnits="userSpaceOnUse" x="0" y="0" width="40" height="40">
<path d="M0 0H40V40H0V0Z" fill="white"/>
</mask>
<g mask="url(#mask0_6_77)">
<path d="M39.0483 1.46211e-06H0.950002C0.697893 0.000442984 0.456261 0.100902 0.278149 0.279327C0.100037 0.457751 1.07807e-06 0.699559 1.46469e-06 0.951668V39.05C-0.00021809 39.175 0.0242476 39.2989 0.0719956 39.4144C0.119744 39.53 0.189834 39.635 0.278249 39.7234C0.366663 39.8118 0.471661 39.8819 0.587221 39.9297C0.702782 39.9774 0.826632 40.0019 0.951668 40.0017H39.05C39.175 40.0017 39.2987 39.977 39.4142 39.9292C39.5296 39.8814 39.6346 39.8113 39.7229 39.7229C39.8113 39.6346 39.8814 39.5296 39.9292 39.4142C39.9771 39.2987 40.0017 39.175 40.0017 39.05V0.950001C40.0014 0.825027 39.9766 0.701319 39.9286 0.585941C39.8806 0.470563 39.8103 0.365775 39.7218 0.277559C39.6332 0.189344 39.5282 0.119428 39.4126 0.0718046C39.2971 0.0241811 39.1733 -0.000217599 39.0483 1.46211e-06ZM23.81 21.3767H19.0483V36.19H15.2383V21.3767H10.4767V18.095H23.81V21.3767ZM24.8767 35.3433V31.385C24.8767 31.385 27.04 33.015 29.635 33.015C32.23 33.015 32.13 31.3183 32.13 31.085C32.13 28.6233 24.7767 28.6233 24.7767 23.1667C24.7767 15.7467 35.4917 18.675 35.4917 18.675L35.3583 22.2017C35.3583 22.2017 33.5617 21.0033 31.5317 21.0033C29.5017 21.0033 28.77 21.97 28.77 23C28.77 25.6617 36.19 25.3967 36.19 30.7533C36.19 39.0033 24.8767 35.345 24.8767 35.345V35.3433Z" fill="white"/>
</g>
</g>
<defs>
<clipPath id="clip0_6_77">
<rect width="40" height="40" fill="white"/>
</clipPath>
</defs>
</svg>
