<svg width="40" height="40" viewBox="0 0 40 40" fill="none" xmlns="http://www.w3.org/2000/svg">
<g clip-path="url(#clip0_6_119)">
<path d="M39.245 18.2173L21.78 0.754772C21.5409 0.515527 21.2569 0.32574 20.9444 0.196254C20.6319 0.0667686 20.297 0.00012207 19.9587 0.00012207C19.6205 0.00012207 19.2855 0.0667686 18.973 0.196254C18.6605 0.32574 18.3766 0.515527 18.1375 0.754772L14.5125 4.37977L19.1125 8.97977C19.655 8.79455 20.2387 8.76557 20.7968 8.89615C21.355 9.02672 21.8653 9.3116 22.2693 9.71825C22.6734 10.1249 22.955 10.637 23.0819 11.196C23.2089 11.755 23.1762 12.3385 22.9875 12.8798L27.42 17.3148C28.0758 17.0839 28.7906 17.0832 29.4469 17.3128C30.1031 17.5424 30.6616 17.9886 31.0303 18.578C31.3991 19.1674 31.5562 19.8648 31.4757 20.5554C31.3952 21.2459 31.0819 21.8885 30.5875 22.3773C30.087 22.8809 29.4271 23.1951 28.7206 23.2662C28.0141 23.3373 27.3049 23.161 26.714 22.7673C26.1231 22.3735 25.6873 21.7869 25.4809 21.1075C25.2745 20.4281 25.3104 19.6981 25.5825 19.0423L21.45 14.9073V25.7898C22.0781 26.1007 22.5807 26.6175 22.874 27.2541C23.1673 27.8907 23.2336 28.6085 23.0618 29.288C22.8899 29.9675 22.4904 30.5676 21.9298 30.9883C21.3692 31.4089 20.6813 31.6247 19.9809 31.5997C19.2804 31.5747 18.6097 31.3104 18.0806 30.8508C17.5514 30.3912 17.1957 29.7642 17.0728 29.0741C16.9499 28.3841 17.0672 27.6728 17.4051 27.0588C17.7431 26.4448 18.2813 25.9651 18.93 25.6998V14.7173C18.5557 14.5639 18.2155 14.338 17.9289 14.0525C17.6424 13.767 17.4152 13.4277 17.2604 13.054C17.1056 12.6803 17.0263 12.2796 17.0271 11.8752C17.0279 11.4707 17.1088 11.0704 17.265 10.6973L12.7325 6.16227L0.757488 18.1373C0.518243 18.3764 0.328456 18.6603 0.19897 18.9728C0.0694847 19.2853 0.00283813 19.6203 0.00283813 19.9585C0.00283813 20.2968 0.0694847 20.6317 0.19897 20.9442C0.328456 21.2567 0.518243 21.5406 0.757488 21.7798L18.2225 39.2448C18.4616 39.484 18.7455 39.6738 19.058 39.8033C19.3705 39.9328 19.7055 39.9994 20.0437 39.9994C20.382 39.9994 20.7169 39.9328 21.0294 39.8033C21.3419 39.6738 21.6259 39.484 21.865 39.2448L39.2475 21.8623C39.7301 21.379 40.0011 20.724 40.0011 20.041C40.0011 19.3581 39.7301 18.703 39.2475 18.2198" fill="white"/>
</g>
<defs>
<clipPath id="clip0_6_119">
<rect width="40" height="40" fill="white"/>
</clipPath>
</defs>
</svg>
