<svg width="68" height="68" viewBox="0 0 68 68" fill="none" xmlns="http://www.w3.org/2000/svg">
<path d="M37.5949 10.3949C38.445 9.54506 39.5979 9.06763 40.7999 9.06763C42.002 9.06763 43.1549 9.54506 44.005 10.3949L64.405 30.7949C65.2549 31.6451 65.7323 32.7979 65.7323 34C65.7323 35.2021 65.2549 36.3549 64.405 37.2051L44.005 57.6051C43.15 58.4308 42.0049 58.8878 40.8163 58.8774C39.6276 58.8671 38.4906 58.3904 37.6501 57.5498C36.8096 56.7093 36.3328 55.5723 36.3225 54.3837C36.3122 53.195 36.7691 52.0499 37.5949 51.1949L49.8666 38.5333H6.79993C5.59762 38.5333 4.44455 38.0557 3.59438 37.2055C2.74422 36.3554 2.2666 35.2023 2.2666 34C2.2666 32.7977 2.74422 31.6446 3.59438 30.7944C4.44455 29.9443 5.59762 29.4667 6.79993 29.4667H49.8666L37.5949 16.8051C36.745 15.9549 36.2676 14.8021 36.2676 13.6C36.2676 12.3979 36.745 11.2451 37.5949 10.3949Z" fill="#C53232"/>
</svg>
