<svg width="40" height="40" viewBox="0 0 40 40" fill="none" xmlns="http://www.w3.org/2000/svg">
<g clip-path="url(#clip0_6_71)">
<path d="M29.6863 37.5066C29.5375 37.5853 29.55 37.6103 29.6925 37.5378C29.7364 37.5199 29.7767 37.494 29.8113 37.4616C29.8113 37.4353 29.8113 37.4353 29.6863 37.5066ZM29.9863 37.3441C29.915 37.4028 29.915 37.4028 30 37.3641C30.0314 37.3494 30.0601 37.3295 30.085 37.3053C30.085 37.2716 30.065 37.2791 29.9863 37.3441ZM30.1813 37.2266C30.11 37.2853 30.11 37.2853 30.195 37.2466C30.2265 37.2315 30.2553 37.2112 30.28 37.1866C30.28 37.1553 30.26 37.1616 30.1813 37.2266ZM30.3787 37.1103C30.3075 37.1691 30.3075 37.1691 30.39 37.1291C30.4363 37.1041 30.475 37.0778 30.475 37.0703C30.475 37.0391 30.455 37.0453 30.3787 37.1103ZM30.645 36.9341C30.5088 37.0253 30.4612 37.0841 30.5862 37.0191C30.67 36.9678 30.8125 36.8553 30.7875 36.8553C30.7337 36.8753 30.6887 36.9091 30.6437 36.9341H30.645ZM18.6913 0.0140703C18.6 0.0203203 18.3262 0.0453203 18.0862 0.0653203C12.4013 0.58032 7.0825 3.64032 3.71125 8.35407C1.84821 10.9394 0.637198 13.9365 0.18125 17.0903C0.02 18.1903 0 18.5153 0 20.0066C0 21.4966 0.02 21.8166 0.18125 22.9166C1.27 30.4303 6.615 36.7378 13.86 39.0753C15.1638 39.4916 16.53 39.7791 18.0862 39.9553C18.6912 40.0203 21.3075 40.0203 21.9125 39.9553C24.6025 39.6553 26.8738 38.9916 29.1213 37.8453C29.4663 37.6703 29.5312 37.6241 29.485 37.5853C28.3886 36.136 27.3015 34.6798 26.2238 33.2166L23.0275 28.9003L19.0237 22.9691C17.692 20.9832 16.3465 19.0064 14.9875 17.0391C14.9737 17.0391 14.9562 19.6753 14.9487 22.8903C14.935 28.5216 14.935 28.7503 14.8637 28.8803C14.7954 29.0374 14.673 29.1647 14.5187 29.2391C14.395 29.2978 14.2838 29.3103 13.6925 29.3103H13.0163L12.84 29.2003C12.7296 29.1295 12.6399 29.0307 12.58 28.9141L12.495 28.7378L12.5013 20.8991L12.515 13.0603L12.6388 12.9041C12.7178 12.808 12.8151 12.7286 12.925 12.6703C13.0888 12.5916 13.1538 12.5791 13.83 12.5791C14.6238 12.5791 14.755 12.6103 14.9637 12.8391C16.5857 15.2514 18.1936 17.6731 19.7875 20.1041C22.3862 24.0441 25.9338 29.4203 27.6775 32.0578L30.8488 36.8566L31.005 36.7528C32.5291 35.74 33.9102 34.5271 35.1113 33.1466C37.6307 30.2629 39.2655 26.7142 39.82 22.9253C39.9813 21.8253 40.0012 21.4991 40.0012 20.0091C40.0012 18.5178 39.9813 18.1991 39.82 17.0991C38.7313 9.58532 33.3863 3.27782 26.1413 0.93907C24.7872 0.510222 23.3936 0.218342 21.9812 0.0678203C21.6025 0.0290703 19.0175 -0.0171796 18.6925 0.0165703L18.6913 0.0140703ZM26.875 12.1103C26.968 12.156 27.0509 12.2198 27.119 12.2979C27.187 12.376 27.2388 12.4669 27.2712 12.5653C27.305 12.6703 27.3112 14.8441 27.305 19.7403L27.2913 26.7703L26.055 24.8703L24.8113 22.9691V17.8653C24.8113 14.5566 24.825 12.7016 24.8425 12.6103C24.9037 12.4011 25.044 12.224 25.2338 12.1166C25.3888 12.0378 25.4488 12.0316 26.0675 12.0316C26.6463 12.0316 26.745 12.0378 26.875 12.1103Z" fill="white"/>
</g>
<defs>
<clipPath id="clip0_6_71">
<rect width="40" height="40" fill="white"/>
</clipPath>
</defs>
</svg>
