<svg width="40" height="40" viewBox="0 0 40 40" fill="none" xmlns="http://www.w3.org/2000/svg">
<g clip-path="url(#clip0_6_95)">
<path d="M20.2648 40H20.2591C19.6133 40 19.0095 39.8483 18.4914 39.5817L18.5086 39.59L12.9143 36.695C12.08 36.285 12.4876 36.1417 12.7619 36.0567C13.6671 35.8111 14.5326 35.465 15.3372 35.0267L15.2914 35.05C15.3581 35.0234 15.4315 35.0122 15.5045 35.0174C15.5775 35.0227 15.6478 35.0442 15.7086 35.08L15.7067 35.0783L20.0038 37.31C20.0841 37.3477 20.1739 37.3673 20.265 37.367C20.3561 37.3667 20.4457 37.3465 20.5257 37.3083L20.5219 37.31L37.2724 28.8483C37.3501 28.8068 37.4144 28.7485 37.459 28.6791C37.5037 28.6097 37.5273 28.5314 37.5276 28.4517V11.5367C37.5269 11.4565 37.5027 11.3777 37.4574 11.308C37.412 11.2383 37.347 11.1799 37.2686 11.1383L37.2667 11.1367L20.5219 2.68334C20.4427 2.64461 20.3534 2.62441 20.2626 2.6247C20.1719 2.62499 20.0827 2.64577 20.0038 2.68501L20.0057 2.68334L3.26477 11.1383C3.18487 11.1793 3.11847 11.2377 3.07206 11.3078C3.02566 11.3779 3.00083 11.4573 3.00001 11.5383V28.4533C3.00001 28.6217 3.10477 28.7667 3.26097 28.8433L3.26287 28.845L7.85335 31.165C10.3429 32.255 11.8667 30.9717 11.8667 29.6833V12.98C11.8667 12.7467 12.0838 12.5567 12.3505 12.5567H14.4819C14.7486 12.5567 14.9657 12.745 14.9657 12.98V29.6833C14.9657 32.5917 13.1562 34.26 10.0057 34.26L9.88001 34.2617C8.55052 34.2635 7.24689 33.9403 6.1162 33.3283L1.7543 31.1317C1.21991 30.859 0.776552 30.4685 0.46841 29.9992C0.160268 29.5298 -0.00188763 28.998 -0.00189209 28.4567V11.5383C1.26723e-05 10.405 0.69906 9.41668 1.73906 8.88001L1.7562 8.87168L18.5086 0.401678C19.0513 0.141347 19.6605 0.0055734 20.2793 0.00703065C20.8982 0.0084879 21.5066 0.147129 22.0476 0.410011L22.0286 0.401678L38.7791 8.87168C39.8362 9.41668 40.5333 10.405 40.5372 11.5383V28.455C40.5365 28.9937 40.3754 29.5229 40.0698 29.9905C39.7642 30.4581 39.3246 30.848 38.7943 31.1217L38.7772 31.13L22.0305 39.5933C21.4971 39.864 20.8909 40.0055 20.2743 40.0033H20.261L20.2648 40Z" fill="white"/>
<path d="M25.44 28.3484C18.1105 28.3484 16.5734 25.405 16.5734 22.9334V22.9317C16.5734 22.6984 16.7886 22.51 17.0553 22.51H19.2267C19.4686 22.51 19.6686 22.665 19.7067 22.8667C20.0324 24.7967 21.0076 25.7717 25.44 25.7717C28.9696 25.7717 30.4686 25.0734 30.4686 23.435C30.4686 22.49 30.0438 21.79 24.56 21.32C19.9772 20.92 17.1429 20.0367 17.1429 16.8284C17.1429 13.8717 19.9924 12.1067 24.7619 12.1067C30.1296 12.1067 32.7848 13.7367 33.12 17.2334L33.1219 17.27C33.1219 17.3823 33.071 17.49 32.9802 17.5694C32.8895 17.6488 32.7664 17.6934 32.6381 17.6934H30.48C30.3707 17.693 30.2648 17.6601 30.1797 17.6002C30.0945 17.5402 30.0352 17.4567 30.0115 17.3634V17.36C29.4896 15.33 28.221 14.6817 24.781 14.6817C20.9276 14.6817 20.48 15.8567 20.48 16.735C20.48 17.8017 21.0096 18.1117 26.2115 18.7134C31.3581 19.31 33.8038 20.1517 33.8038 23.3167C33.7962 26.515 30.7543 28.345 25.4457 28.345L25.44 28.3484Z" fill="white"/>
</g>
<defs>
<clipPath id="clip0_6_95">
<rect width="40" height="40" fill="white"/>
</clipPath>
</defs>
</svg>
