<svg width="149" height="176" viewBox="0 0 149 176" fill="none" xmlns="http://www.w3.org/2000/svg">
<path d="M149 88C149.006 90.2983 148.416 92.5589 147.288 94.562C146.161 96.565 144.534 98.2424 142.566 99.431L20.5891 174.007C18.5326 175.266 16.1772 175.953 13.7662 175.998C11.3552 176.042 8.97602 175.443 6.87432 174.261C4.79263 173.098 3.05853 171.402 1.85034 169.346C0.642151 167.291 0.00347828 164.952 0 162.568V13.432C0.00347828 11.0484 0.642151 8.70873 1.85034 6.65358C3.05853 4.59844 4.79263 2.90201 6.87432 1.73876C8.97602 0.557146 11.3552 -0.0423017 13.7662 0.00232128C16.1772 0.0469443 18.5326 0.734021 20.5891 1.99259L142.566 76.569C144.534 77.7576 146.161 79.435 147.288 81.438C148.416 83.4411 149.006 85.7017 149 88Z" fill="white"/>
</svg>
