<svg width="40" height="40" viewBox="0 0 40 40" fill="none" xmlns="http://www.w3.org/2000/svg">
<path d="M17.9 21.4834V21.3C18 21.05 18.1 20.8167 18.2167 20.5834C19.1391 18.6338 19.2938 16.4084 18.65 14.35C18.6164 14.056 18.4926 13.7797 18.2956 13.5589C18.0987 13.338 17.8382 13.1836 17.55 13.1167C16.3101 13.0304 15.0802 13.391 14.0833 14.1334V14.4334C14.1928 15.772 14.1593 17.1185 13.9833 18.45C13.8888 19.0477 13.9327 19.659 14.1119 20.237C14.2911 20.8149 14.6006 21.344 15.0167 21.7834C15.3231 22.1094 15.6921 22.3704 16.1015 22.5507C16.511 22.7311 16.9526 22.8273 17.4 22.8334C17.5424 22.3747 17.7093 21.9241 17.9 21.4834ZM16.6667 14.3C16.573 14.1939 16.5199 14.0582 16.5167 13.9167C16.5268 13.8749 16.5453 13.8356 16.5711 13.8013C16.5969 13.7669 16.6294 13.7381 16.6667 13.7167C16.9126 13.589 17.1945 13.5479 17.4667 13.6C17.8833 13.6 18.3 13.8667 18.2667 14.1667C18.2045 14.3318 18.0924 14.4734 17.9461 14.572C17.7997 14.6705 17.6264 14.7211 17.45 14.7167H17.35C17.0761 14.6735 16.8305 14.5237 16.6667 14.3Z" fill="white"/>
<path d="M13.1333 18.3333C13.2837 17.0613 13.3172 15.7781 13.2333 14.5V14.0333C13.1676 11.2819 14.0768 8.59591 15.8 6.45C14.1333 5.91667 10.1333 4.78333 7.68332 6.61667C6.18332 7.68333 5.48332 9.68333 5.63332 12.5333C5.96534 15.0233 6.52319 17.4778 7.29999 19.8667C8.43332 23.5667 9.71665 25.9 10.8167 26.2833C10.9833 26.2833 11.5 26.5 12.25 25.6C13.3167 24.3333 14.3 23.25 14.75 22.7667L14.4333 22.45C13.9113 21.9123 13.522 21.2601 13.2963 20.5455C13.0706 19.8308 13.0148 19.0733 13.1333 18.3333ZM18.9667 24C18.7 23.9 18.5667 23.8333 18.2667 24.1833C18.0883 24.3628 17.9265 24.5581 17.7833 24.7667C17.2 25.4833 16.95 25.7333 15.2667 26.0833C15.0387 26.1212 14.8153 26.1826 14.6 26.2667C14.7853 26.3965 14.9951 26.4872 15.2167 26.5333C15.9625 26.7856 16.7695 26.7922 17.5194 26.5523C18.2693 26.3123 18.9225 25.8384 19.3833 25.2C19.4264 25.1088 19.4487 25.0092 19.4487 24.9083C19.4487 24.8075 19.4264 24.7079 19.3833 24.6167C19.3306 24.3645 19.181 24.143 18.9667 24ZM29.45 14.3C29.5274 13.8651 29.5719 13.4249 29.5833 12.9833C28.4833 12.85 27.2167 12.8667 26.7167 13.5833C25.75 14.9667 27.65 18.3833 28.3833 19.8333C28.5444 20.0906 28.6891 20.3578 28.8167 20.6333C28.8832 20.8132 28.9669 20.9862 29.0667 21.15C29.5007 20.0182 29.5934 18.784 29.3333 17.6C29.2536 17.0201 29.2146 16.4353 29.2167 15.85C29.2538 15.328 29.3318 14.8098 29.45 14.3ZM28.5167 14.0333C28.3723 14.1805 28.1861 14.2794 27.9833 14.3167H27.8833C27.7249 14.3173 27.5699 14.2698 27.439 14.1806C27.3081 14.0913 27.2073 13.9644 27.15 13.8167C27.15 13.5833 27.4833 13.4167 27.8833 13.35C28.2833 13.2833 28.6833 13.35 28.7167 13.6C28.709 13.765 28.6373 13.9205 28.5167 14.0333Z" fill="white"/>
<path d="M28.3333 8.13333C29.4313 9.35427 30.2151 10.8245 30.6167 12.4167C30.6255 12.4998 30.6255 12.5836 30.6167 12.6667C30.6222 13.259 30.5719 13.8504 30.4667 14.4333C30.3876 14.9076 30.3376 15.3863 30.3167 15.8667C30.3133 16.4244 30.3523 16.9815 30.4333 17.5333C30.77 19.0626 30.5576 20.6616 29.8333 22.05L29.95 22.1833C33.65 16.3667 34.95 9.61667 33.7667 8.13333C33.0087 7.18038 32.0419 6.41428 30.9409 5.89413C29.8399 5.37398 28.6342 5.11369 27.4167 5.13333C26.504 5.12059 25.5928 5.21004 24.7 5.4C26.0999 6.0286 27.3413 6.96254 28.3333 8.13333Z" fill="white"/>
<path d="M36.0833 23.3333C35.9667 23 35.4667 21.9167 33.6333 22.3C33.0845 22.4168 32.5271 22.4893 31.9667 22.5167C33.4713 19.9721 34.6261 17.2364 35.4 14.3833C36.0167 11.9667 36.5 8.73335 35.2167 7.08335C34.2741 5.88767 33.0671 4.92677 31.6906 4.27612C30.3141 3.62546 28.8056 3.30276 27.2833 3.33335C25.8954 3.32445 24.5137 3.52102 23.1833 3.91668C22.385 3.77637 21.577 3.69836 20.7667 3.68335C19.3321 3.65386 17.9159 4.01078 16.6667 4.71668C15.703 4.39909 14.7169 4.15397 13.7167 3.98335C12.5282 3.68034 11.2907 3.6216 10.0789 3.81067C8.86712 3.99974 7.70629 4.4327 6.66666 5.08335C4.59999 6.53335 3.64999 9.06668 3.81666 12.6167C4.13483 15.2563 4.69269 17.8615 5.48333 20.4C5.95358 21.9882 6.573 23.5284 7.33333 25C7.87512 26.3552 8.92033 27.4482 10.25 28.05C10.7319 28.207 11.247 28.2326 11.7421 28.1242C12.2372 28.0158 12.6944 27.7773 13.0667 27.4333C13.5128 27.9187 14.0928 28.2609 14.7333 28.4167C16.0288 28.7736 17.406 28.6916 18.65 28.1833V29.5333C18.636 30.8623 18.8099 32.1865 19.1667 33.4667C19.1714 33.5388 19.1714 33.6112 19.1667 33.6833C19.3889 34.4575 19.7949 35.1665 20.35 35.75C21.0213 36.3781 21.9145 36.7138 22.8333 36.6833C23.2261 36.6849 23.6177 36.6401 24 36.55C24.7244 36.4618 25.4237 36.2289 26.0564 35.8653C26.6891 35.5017 27.2424 35.0148 27.6833 34.4333C28.8122 32.4004 29.3383 30.0879 29.2 27.7667V27.3333H29.4833C30.8505 27.428 32.2208 27.1997 33.4833 26.6667C34.2333 26.2833 36.6667 25 36.0833 23.3333ZM33.0667 25.7833C32.1135 26.1672 31.0941 26.3597 30.0667 26.35C29.6218 26.3619 29.1778 26.3057 28.75 26.1833C28.5833 27.75 28.2167 30.6667 28 31.8833C27.936 32.8649 27.5227 33.7912 26.8348 34.4944C26.1469 35.1975 25.23 35.6312 24.25 35.7167C23.8883 35.7932 23.5197 35.8323 23.15 35.8333C22.4244 35.8164 21.7241 35.5631 21.1555 35.1119C20.587 34.6607 20.1813 34.0362 20 33.3333C19.5703 31.1051 19.4136 28.8328 19.5333 26.5667C18.722 27.3 17.66 27.6938 16.5667 27.6667C16.0376 27.6578 15.5116 27.5851 15 27.45C14.85 27.45 13.55 27.0667 13.5667 26.2333C13.5833 25.4 14.6667 25.25 15.0667 25.1667C16.5 24.8667 16.6 24.75 17.05 24.1833C17.1481 24.0443 17.2539 23.9108 17.3667 23.7833C16.7201 23.7591 16.0874 23.5881 15.5167 23.2833C15.1333 23.7 14.0833 24.8333 12.95 26.1833C12.744 26.4897 12.4697 26.744 12.1486 26.9262C11.8276 27.1084 11.4686 27.2136 11.1 27.2333C10.9065 27.2612 10.7101 27.2612 10.5167 27.2333C9.04999 26.6667 7.66666 24.25 6.39999 20C5.61357 17.5399 5.05566 15.0126 4.73333 12.45C4.56666 9.25001 5.39999 6.98335 7.18333 5.78335C10.3833 3.51668 15.5167 5.26668 16.6833 5.68335C17.8704 4.89717 19.278 4.51169 20.7 4.58335C21.4873 4.58417 22.2714 4.68498 23.0333 4.88335C24.3745 4.42693 25.7834 4.2015 27.2 4.21668C28.576 4.17885 29.942 4.4601 31.1912 5.0384C32.4403 5.6167 33.5386 6.47635 34.4 7.55002C35.55 9.01668 34.7833 12.55 34.4 14.0333C33.5448 17.2319 32.1892 20.275 30.3833 23.05C30.65 23.2333 31.4667 23.5667 33.7167 23.05C34.4833 22.8833 34.9333 23.05 35.0833 23.4667C35.45 24.3833 33.9167 25.35 33.0667 25.75V25.7833Z" fill="white"/>
<path d="M29.05 22.65C28.6253 22.1484 28.2771 21.5868 28.0167 20.9833C28.0167 20.8667 27.8167 20.5833 27.6333 20.2667C26.6667 18.6 24.65 14.9 25.9667 13.0333C26.4099 12.562 26.972 12.2188 27.5937 12.0399C28.2155 11.861 28.874 11.853 29.5 12.0167C29.0715 10.8345 28.4335 9.73923 27.6167 8.78332C26.7837 7.7572 25.7354 6.92673 24.5459 6.3507C23.3564 5.77468 22.0548 5.46718 20.7333 5.44999C19.9535 5.40083 19.172 5.51641 18.4398 5.78921C17.7075 6.062 17.0409 6.4859 16.4833 7.03332C15.0643 8.70507 14.2535 10.8083 14.1833 13L14.4333 12.8667C15.1263 12.4929 15.8843 12.2553 16.6667 12.1667C16.9904 12.0917 17.3261 12.0843 17.6528 12.1449C17.9796 12.2055 18.2903 12.3329 18.5656 12.519C18.8409 12.7051 19.0748 12.946 19.2528 13.2267C19.4308 13.5073 19.549 13.8216 19.6 14.15C20.2852 16.404 20.1131 18.8318 19.1167 20.9667C19.0083 21.177 18.9136 21.3941 18.8333 21.6167V21.8C18.6667 22.25 18.5167 22.6667 18.4167 23.0167C18.7377 22.9555 19.0699 22.9963 19.3667 23.1333C19.6174 23.2526 19.8394 23.4246 20.0177 23.6374C20.196 23.8502 20.3264 24.0989 20.4 24.3667V24.6333C20.4081 24.683 20.4081 24.7337 20.4 24.7833C20.2205 27.5107 20.3434 30.2496 20.7667 32.95C20.8417 33.3027 20.9922 33.635 21.2078 33.9241C21.4233 34.2132 21.6989 34.4523 22.0156 34.6249C22.3322 34.7974 22.6825 34.8995 23.0422 34.9239C23.402 34.9484 23.7629 34.8948 24.1 34.7667C24.8936 34.7131 25.6388 34.366 26.1904 33.7928C26.7419 33.2197 27.0603 32.4617 27.0833 31.6667C27.3333 30.2 27.8333 26.0833 27.9 25.2C27.9 23.4333 28.7667 23.0833 29.3 22.9333L29.05 22.65Z" fill="white"/>
<path d="M30 23.8833L29.8667 23.7833H29.6667C29.2333 23.9 28.8333 24.0167 28.8833 25.1167C29.3752 25.3118 29.9081 25.3805 30.4333 25.3167C31.2214 25.2835 31.9986 25.1202 32.7333 24.8333C33.2153 24.6159 33.6597 24.3233 34.05 23.9667C32.7341 24.428 31.2958 24.3984 30 23.8833Z" fill="white"/>
</svg>
