<svg width="40" height="40" viewBox="0 0 40 40" fill="none" xmlns="http://www.w3.org/2000/svg">
<g clip-path="url(#clip0_6_111)">
<path d="M0 0V40H40V0H0ZM20.6324 18.578C19.1902 20.6573 16.3027 21.7067 12.3181 21.5185V29.107H8.91641V8.08594L14.0627 7.99875C18.3405 7.83781 21.6199 10.1036 21.6512 14.6278C21.6143 16.2209 21.3458 17.5496 20.6324 18.578ZM31.7692 16.285C31.7651 16.4203 31.6959 16.4627 31.5948 16.4595C30.3255 16.3444 29.0173 16.5376 27.9314 16.8084V29.107H24.5295V16.7211C24.5432 15.9871 24.5029 15.4542 24.4423 14.8894C24.4295 14.8248 24.4275 14.6892 24.6168 14.6277C26.3173 14.0109 28.886 13.2665 31.5948 13.3194C31.7018 13.3188 31.7684 13.367 31.7692 13.4938V16.285ZM18.1622 14.7149C18.1662 15.764 17.9927 16.5138 17.5923 17.0514C16.5612 18.436 14.5291 18.4123 13.8883 18.4656H12.3181V11.0516H14.1498C17.1256 11.0724 18.1169 12.578 18.1622 14.7149Z" fill="white"/>
</g>
<defs>
<clipPath id="clip0_6_111">
<rect width="40" height="40" fill="white"/>
</clipPath>
</defs>
</svg>
