<svg width="65" height="65" viewBox="0 0 65 65" fill="none" xmlns="http://www.w3.org/2000/svg">
<path d="M29.0638 9.93634C28.2512 9.12397 27.1492 8.6676 26.0002 8.6676C24.8511 8.6676 23.7491 9.12397 22.9365 9.93634L3.43649 29.4363C2.62412 30.249 2.16775 31.351 2.16775 32.5C2.16775 33.6491 2.62412 34.7511 3.43649 35.5637L22.9365 55.0637C23.7538 55.853 24.8484 56.2898 25.9846 56.2799C27.1208 56.2701 28.2076 55.8143 29.011 55.0109C29.8145 54.2075 30.2702 53.1206 30.2801 51.9844C30.29 50.8482 29.8532 49.7536 29.0638 48.9363L17.3335 36.8333H58.5002C59.6494 36.8333 60.7516 36.3768 61.5643 35.5641C62.3769 34.7515 62.8335 33.6493 62.8335 32.5C62.8335 31.3507 62.3769 30.2485 61.5643 29.4359C60.7516 28.6232 59.6494 28.1667 58.5002 28.1667H17.3335L29.0638 16.0637C29.8762 15.2511 30.3326 14.1491 30.3326 13C30.3326 11.851 29.8762 10.749 29.0638 9.93634Z" fill="currentColor"/>
</svg>
