<svg width="40" height="40" viewBox="0 0 40 40" fill="none" xmlns="http://www.w3.org/2000/svg">
<path d="M20 21.7167C21.643 21.7167 22.975 20.3847 22.975 18.7417C22.975 17.0986 21.643 15.7667 20 15.7667C18.3569 15.7667 17.025 17.0986 17.025 18.7417C17.025 20.3847 18.3569 21.7167 20 21.7167Z" fill="white"/>
<path d="M11.67 24.6567L11.0117 24.4884C6.12168 23.2534 3.31668 21.1534 3.31668 18.735C3.31668 16.315 6.12335 14.2167 11.0117 12.9817L11.67 12.815L11.855 13.4667C12.3492 15.1728 12.9825 16.8356 13.7483 18.4384L13.89 18.735L13.7483 19.0317C12.9817 20.6367 12.3467 22.3 11.855 24.0067L11.67 24.6567ZM10.7083 14.4984C6.99335 15.545 4.71168 17.1417 4.71168 18.735C4.71168 20.325 6.99168 21.9234 10.7083 22.9684C11.1633 21.5217 11.7133 20.1067 12.35 18.735C11.7087 17.3611 11.1603 15.9457 10.7083 14.4984ZM28.3283 24.6567L28.145 24.0034C27.6495 22.2969 27.0157 20.6336 26.25 19.03L26.1083 18.735L26.25 18.4367C27.0167 16.835 27.6483 15.17 28.145 13.4634L28.3283 12.8134L28.9867 12.98C33.8783 14.215 36.6817 16.3134 36.6817 18.735C36.6817 21.155 33.8767 23.2534 28.9867 24.4884L28.3283 24.6567ZM27.645 18.735C28.3117 20.1784 28.8667 21.5984 29.29 22.9684C33.0067 21.9234 35.2883 20.325 35.2883 18.735C35.2883 17.1417 33.0083 15.5467 29.29 14.4984C28.8355 15.9452 28.2859 17.3605 27.645 18.735Z" fill="white"/>
<path d="M10.6983 14.4917L10.515 13.8417C9.13832 8.99502 9.55499 5.52335 11.66 4.31335C13.7183 3.12168 17.03 4.53002 20.4983 8.08835L20.9717 8.57502L20.4983 9.06002C19.2664 10.3412 18.1405 11.7201 17.1317 13.1834L16.9433 13.4534L16.6167 13.48C14.8426 13.6193 13.0829 13.9031 11.355 14.3284L10.6983 14.4917ZM13.335 5.27668C12.9617 5.27668 12.6317 5.35835 12.3533 5.51835C10.9733 6.31335 10.73 9.08168 11.68 12.8184C13.165 12.49 14.6633 12.255 16.1733 12.1234C17.0475 10.8834 18.0012 9.70152 19.0283 8.58502C16.8567 6.47335 14.8067 5.27668 13.335 5.27668ZM26.6633 33.5834C24.6833 33.5834 22.14 32.09 19.5 29.38L19.0283 28.895L19.5 28.4117C20.7321 27.1285 21.8585 25.7479 22.8683 24.2834L23.055 24.0167L23.3783 23.985C25.153 23.8482 26.9133 23.5655 28.6417 23.14L29.3 22.9734L29.485 23.625C30.855 28.4684 30.44 31.945 28.3383 33.155C27.828 33.4443 27.2498 33.5921 26.6633 33.5834ZM20.9717 28.8834C23.1417 30.995 25.1933 32.1934 26.6633 32.1934C27.0383 32.1934 27.3683 32.11 27.645 31.9517C29.0267 31.155 29.2717 28.3817 28.3183 24.645C26.835 24.975 25.335 25.2117 23.8217 25.3434C22.9512 26.5852 21.9991 27.7678 20.9717 28.8834Z" fill="white"/>
<path d="M29.3 14.4916L28.6417 14.3266C26.9134 13.9 25.1531 13.6163 23.3783 13.4783L23.055 13.45L22.8683 13.18C21.8599 11.716 20.7334 10.3369 19.5 9.05664L19.0283 8.57164L19.5 8.08831C22.9667 4.53164 26.2767 3.12331 28.3383 4.31331C30.4417 5.52498 30.86 8.99664 29.485 13.8416L29.3 14.4916ZM23.8217 12.1233C25.4117 12.265 26.9183 12.5033 28.3183 12.8183C29.27 9.08164 29.0267 6.31331 27.645 5.51664C26.2717 4.72164 23.6867 5.93831 20.9717 8.58498C21.9983 9.70164 22.9517 10.8816 23.8217 12.1233ZM13.335 33.5833C12.7486 33.5917 12.1704 33.4438 11.66 33.155C9.555 31.945 9.13833 28.47 10.5133 23.625L10.6933 22.9733L11.3517 23.14C12.9583 23.545 14.7283 23.83 16.615 23.985L16.9383 24.0166L17.1267 24.2833C18.1333 25.7466 19.26 27.1283 20.4933 28.4116L20.9667 28.895L20.4933 29.38C17.855 32.0916 15.3117 33.5833 13.335 33.5833ZM11.68 24.6466C10.73 28.3833 10.9733 31.1566 12.3533 31.9533C13.7283 32.7366 16.305 31.5283 19.0283 28.8833C18.0016 27.7665 17.0479 26.5846 16.1733 25.345C14.6618 25.2113 13.1608 24.978 11.68 24.6466Z" fill="white"/>
<path d="M20 25.5217C18.855 25.5217 17.68 25.4733 16.5 25.375L16.1733 25.3467L15.985 25.0767C15.3196 24.1198 14.6935 23.1362 14.1083 22.1283C13.5275 21.1177 12.9876 20.0841 12.49 19.03L12.35 18.735L12.49 18.4367C12.9883 17.3833 13.5267 16.35 14.1083 15.34C14.6867 14.3467 15.3183 13.3533 15.985 12.39L16.1733 12.1233L16.5 12.0933C18.8282 11.8983 21.1685 11.8983 23.4967 12.0933L23.82 12.125L24.0083 12.3917C25.3413 14.3063 26.5121 16.3288 27.5083 18.4383L27.6467 18.7367L27.5083 19.0317C26.5148 21.1426 25.344 23.1654 24.0083 25.0783L23.82 25.3483L23.4967 25.3767C22.32 25.4717 21.1433 25.5217 20 25.5217ZM16.9433 24.015C19.0017 24.17 20.9983 24.17 23.055 24.015C24.2032 22.3337 25.2238 20.5687 26.1083 18.735C25.2269 16.8996 24.2061 15.1344 23.055 13.455C21.0208 13.2983 18.9776 13.2983 16.9433 13.455C15.7912 15.1338 14.7704 16.8991 13.89 18.735C14.7765 20.5677 15.797 22.3325 16.9433 24.015Z" fill="white"/>
</svg>
