<svg width="153" height="161" viewBox="0 0 153 161" fill="none" xmlns="http://www.w3.org/2000/svg">
<path d="M152.341 75.2213C152.341 95.6763 145.086 113.162 130.578 127.678C116.069 142.195 98.4828 149.453 77.819 149.453C65.5086 149.453 53.528 146.374 41.8772 140.215L0.659485 153.082L13.8491 113.492C6.81466 101.615 3.29742 88.858 3.29742 75.2213C3.29742 54.7664 10.5517 37.3358 25.0603 22.9293C39.569 8.52291 57.1552 1.3197 77.819 1.3197C98.4828 1.3197 116.069 8.52291 130.578 22.9293C145.086 37.3358 152.341 54.7664 152.341 75.2213ZM77.819 12.8668C60.4526 12.8668 45.6692 18.9703 33.4688 31.1773C21.2683 43.3843 15.1681 58.0656 15.1681 75.2213C15.1681 88.858 19.125 101.065 27.0388 111.842L19.125 134.937L43.5259 127.348C54.2974 134.167 65.7284 137.576 77.819 137.576C95.1853 137.576 109.969 131.472 122.169 119.265C134.37 107.058 140.47 92.3771 140.47 75.2213C140.47 58.0656 134.37 43.3843 122.169 31.1773C109.969 18.9703 95.1853 12.8668 77.819 12.8668ZM115.409 92.3771C115.19 92.1571 114.091 91.3873 112.112 90.0677C111.453 89.8477 109.364 88.9129 105.847 87.2633C102.33 85.6138 100.241 84.679 99.5819 84.459C97.6034 83.7992 96.1746 84.0192 95.2953 85.1189C95.0754 85.7787 94.5808 86.6035 93.8114 87.5933C93.042 88.583 92.2177 89.5728 91.3384 90.5625C90.459 91.5523 89.9095 92.1571 89.6897 92.3771C88.8103 93.6967 87.4914 93.8067 85.7328 92.707C78.2586 88.9679 73.3125 85.9987 70.8944 83.7992C69.3556 82.2596 67.8718 80.61 66.4429 78.8504C65.014 77.0909 63.695 75.4413 62.486 73.9017C61.2769 72.3621 60.6724 71.4823 60.6724 71.2623C60.0129 69.7227 60.3427 68.513 61.6616 67.6332C62.5409 66.3136 63.4203 65.2138 64.2996 64.334L66.278 61.3648C66.7177 60.2651 66.6078 59.1653 65.9483 58.0656C65.069 55.2063 63.2004 50.6974 60.3427 44.539C59.6832 42.5595 58.3642 41.5697 56.3858 41.5697H52.7586C50.7802 41.5697 49.1315 42.3395 47.8125 43.8791C43.6358 48.0581 41.5474 53.0069 41.5474 58.7254C41.5474 64.0041 43.9655 70.2726 48.8017 77.5308L49.4612 78.5205C49.9009 79.1804 50.3955 79.8952 50.945 80.665C51.4946 81.4348 52.264 82.4246 53.2532 83.6342C54.2425 84.8439 55.2317 85.9987 56.2209 87.0984C57.2101 88.1981 58.3642 89.4628 59.6832 90.8924C61.0022 92.3221 62.431 93.6967 63.9698 95.0164C65.5086 96.3361 67.1024 97.6008 68.7511 98.8105C70.3998 100.02 72.2134 101.12 74.1918 102.11C76.1703 103.099 78.1487 104.034 80.1272 104.914C83.6444 106.234 86.667 107.333 89.195 108.213C91.7231 109.093 93.7015 109.643 95.1304 109.863C96.5593 110.083 97.6034 110.193 98.2629 110.193C98.9224 110.193 99.6918 110.083 100.571 109.863C101.45 109.643 102 109.533 102.22 109.533C104.198 109.313 106.561 108.323 109.309 106.564C112.057 104.804 113.761 102.934 114.42 100.955C116.179 96.3361 116.509 93.4768 115.409 92.3771Z" fill="white"/>
</svg>
